# Blender 3.3.1
# www.blender.org
mtllib house1.mtl
o Cube.003
v -1.039501 1.202957 1.191164
v 0.000000 2.242458 1.191164
v -1.039501 1.202957 -1.191164
v -0.000000 2.242459 -1.191164
v 1.039501 1.202957 1.191164
v 1.039501 1.202957 -1.191164
vn -0.7071 0.7071 -0.0000
vn -0.0000 -0.0000 1.0000
vn -0.0000 -0.0000 -1.0000
vn 0.7071 0.7071 -0.0000
vn -0.0000 -1.0000 -0.0000
vt 0.375000 0.000000
vt 0.625000 0.000000
vt 0.875000 0.750000
vt 0.375000 0.250000
vt 0.625000 0.250000
vt 0.875000 0.500000
vt 0.625000 0.750000
vt 0.625000 0.500000
s 0
f 1/1/1 2/2/1 4/5/1 3/4/1
f 2/3/2 1/1/2 5/7/2
f 3/4/3 4/6/3 6/8/3
f 6/8/4 4/6/4 2/3/4 5/7/4
f 1/1/5 3/4/5 6/8/5 5/7/5
o Cube.004
v 0.870254 0.307892 0.321115
v 0.870254 0.342073 0.321115
v 0.870254 0.307892 -0.321115
v 0.870254 0.342073 -0.321115
v 1.129746 0.307892 0.321115
v 1.129746 0.342073 0.321115
v 1.129746 0.307892 -0.321115
v 1.129746 0.342073 -0.321115
vn -1.0000 -0.0000 -0.0000
vn -0.0000 -0.0000 -1.0000
vn 1.0000 -0.0000 -0.0000
vn -0.0000 -0.0000 1.0000
vn -0.0000 -1.0000 -0.0000
vn -0.0000 1.0000 -0.0000
vt 0.375000 0.000000
vt 0.375000 1.000000
vt 0.125000 0.750000
vt 0.625000 0.000000
vt 0.625000 1.000000
vt 0.875000 0.750000
vt 0.375000 0.250000
vt 0.125000 0.500000
vt 0.625000 0.250000
vt 0.875000 0.500000
vt 0.375000 0.750000
vt 0.625000 0.750000
vt 0.375000 0.500000
vt 0.625000 0.500000
s 0
f 7/9/6 8/12/6 10/17/6 9/15/6
f 9/15/7 10/17/7 14/22/7 13/21/7
f 13/21/8 14/22/8 12/20/8 11/19/8
f 11/19/9 12/20/9 8/13/9 7/10/9
f 9/16/10 13/21/10 11/19/10 7/11/10
f 14/22/11 10/18/11 8/14/11 12/20/11
o Cube.001
v -1.000000 0.027409 1.000000
v -1.000000 1.213805 1.000000
v -1.000000 0.027409 -1.000000
v -1.000000 1.213805 -1.000000
v 1.000000 0.027409 1.000000
v 1.000000 1.213805 1.000000
v 1.000000 0.027409 -1.000000
v 1.000000 1.213805 -1.000000
v -1.000000 0.027409 0.316882
v -1.000000 1.213805 0.316882
v 1.000000 0.027409 0.316882
v 1.000000 1.213805 0.316882
v -1.000000 1.213805 -0.316889
v 1.000000 0.027409 -0.316889
v -1.000000 0.027409 -0.316889
v 1.000000 1.213805 -0.316889
v -1.000000 0.328968 1.000000
v -1.000000 0.328968 -1.000000
v 1.000000 0.328968 -1.000000
v 1.000000 0.328968 1.000000
v 1.000000 0.328968 0.316882
v -1.000000 0.328968 0.316882
v 1.000000 0.328968 -0.316889
v -1.000000 0.328968 -0.316889
v -1.000000 0.771387 1.000000
v -1.000000 0.771387 -1.000000
v 1.000000 0.771387 -1.000000
v 1.000000 0.771387 1.000000
v 1.000000 0.771387 0.316882
v -1.000000 0.771387 0.316882
v 1.000000 0.771387 -0.316889
v -1.000000 0.771387 -0.316889
v -0.285330 0.027409 -1.000000
v -0.285330 1.213805 -1.000000
v -0.285330 0.027409 1.000000
v -0.285330 1.213805 1.000000
v -0.285330 1.213805 0.316882
v -0.285330 0.027409 0.316882
v -0.285330 0.027409 -0.316889
v -0.285330 1.213805 -0.316889
v -0.285330 0.328968 1.000000
v -0.285330 0.328968 -1.000000
v -0.285330 0.771387 1.000000
v -0.285330 0.771387 -1.000000
v 0.266502 1.213805 -1.000000
v 0.266502 0.027409 1.000000
v 0.266502 1.213805 0.316882
v 0.266502 1.213805 -0.316889
v 0.266502 0.328968 -1.000000
v 0.266502 0.771387 -1.000000
v 0.266502 0.027409 -1.000000
v 0.266502 1.213805 1.000000
v 0.266502 0.027409 0.316882
v 0.266502 0.027409 -0.316889
v 0.266502 0.328968 1.000000
v 0.266502 0.771387 1.000000
v -0.948038 0.058233 0.948038
v -0.948038 1.182982 0.948038
v -0.948038 0.058233 -0.948038
v -0.948038 1.182982 -0.948038
v 0.948038 0.058233 0.948038
v 0.948038 1.182982 0.948038
v 0.948038 0.058233 -0.948038
v 0.948038 1.182982 -0.948038
v -0.936360 0.065160 0.316882
v -0.936360 1.176054 0.316882
v 0.936360 0.065160 0.316882
v 0.936360 1.176054 0.316882
v -0.936360 1.176054 -0.316889
v 0.936360 0.065160 -0.316889
v -0.936360 0.065160 -0.316889
v 0.936360 1.176054 -0.316889
v -0.936360 0.328968 0.936360
v -0.936360 0.328968 -0.936360
v 0.936360 0.328968 -0.936360
v 0.936360 0.328968 0.936360
v 0.910000 0.328968 0.316882
v -0.910000 0.328968 0.316882
v 0.910000 0.328968 -0.316889
v -0.910000 0.328968 -0.316889
v -0.936360 0.771387 0.936360
v -0.936360 0.771387 -0.936360
v 0.936360 0.771387 -0.936360
v 0.936360 0.771387 0.936360
v 0.910000 0.771387 0.316882
v -0.910000 0.771387 0.316882
v 0.910000 0.771387 -0.316889
v -0.910000 0.771387 -0.316889
v -0.285330 0.065160 -0.936360
v -0.285330 1.176054 -0.936360
v -0.285330 0.075161 0.916080
v -0.285330 1.176054 0.936360
v -0.285330 1.160417 0.316882
v -0.285330 0.080797 0.316882
v -0.285330 0.080797 -0.316889
v -0.285330 1.160417 -0.316889
v -0.285330 0.328968 0.910000
v -0.285330 0.328968 -0.910000
v -0.285330 0.771387 0.910000
v -0.285330 0.771387 -0.910000
v 0.266502 1.176054 -0.936360
v 0.266502 0.075161 0.916080
v 0.266502 1.160417 0.316882
v 0.266502 1.160417 -0.316889
v 0.266502 0.328968 -0.910000
v 0.266502 0.771387 -0.910000
v 0.266502 0.065160 -0.936360
v 0.266502 1.176054 0.936360
v 0.266502 0.080797 0.316882
v 0.266502 0.080797 -0.316889
v 0.266502 0.328968 0.910000
v 0.266502 0.771387 0.910000
vn -1.0000 -0.0000 -0.0000
vn -0.0000 -0.0000 -1.0000
vn 1.0000 -0.0000 -0.0000
vn -0.0000 -0.0000 1.0000
vn -0.0000 -1.0000 -0.0000
vn -0.0000 1.0000 -0.0000
vn 0.9985 0.0461 -0.0301
vn 0.0279 0.0461 0.9985
vn -0.9985 0.0461 0.0301
vn -0.0287 0.0461 -0.9985
vn 0.0239 0.9997 0.0100
vn -0.0170 -0.9997 0.0179
vn -0.0240 -0.9997 -0.0000
vn 0.0233 0.9997 -0.0000
vn -0.9979 0.0650 -0.0000
vn 0.9985 0.0461 0.0301
vn -0.9985 0.0461 -0.0301
vn 0.0165 0.9997 -0.0179
vn -0.0170 -0.9997 -0.0179
vn 0.9979 0.0650 -0.0000
vn 0.9950 -0.0994 -0.0000
vn -0.9971 -0.0703 -0.0299
vn 0.9971 -0.0703 0.0299
vn -0.9950 -0.0994 -0.0000
vn -0.0439 -0.0328 -0.9985
vn -0.9971 -0.0703 0.0299
vn 0.0277 -0.0704 0.9971
vn 0.9971 -0.0703 -0.0299
vn -0.9991 -0.0000 -0.0425
vn 0.9991 -0.0000 0.0425
vn -0.0405 -0.0000 -0.9992
vn -0.9991 -0.0000 0.0425
vn 0.0393 -0.0000 0.9992
vn 0.9991 -0.0000 -0.0425
vn -0.0405 -0.0000 0.9992
vn -0.0285 -0.0703 0.9971
vn -0.0000 -0.9997 -0.0252
vn -0.0170 0.9997 -0.0179
vn -0.0240 0.9997 -0.0000
vn -0.0000 -0.9997 0.0252
vn -0.0245 0.9996 0.0100
vn -0.0000 0.0650 -0.9979
vn -0.0287 0.0461 0.9985
vn 0.0279 0.0461 -0.9985
vn 0.0165 -0.9997 0.0179
vn 0.0233 -0.9997 -0.0000
vn 0.0165 -0.9997 -0.0179
vn 0.0427 -0.0329 -0.9985
vn 0.0393 -0.0000 -0.9992
vn -0.0000 -0.0994 0.9950
vn -0.0000 0.9997 -0.0252
vn -0.0000 1.0000 0.0094
vn -0.0000 0.0650 0.9979
vn -0.0000 0.8691 0.4946
vt 0.375000 0.000000
vt 0.375000 1.000000
vt 0.125000 0.750000
vt 0.625000 1.000000
vt 0.875000 0.750000
vt 0.625000 0.000000
vt 0.375000 0.250000
vt 0.125000 0.500000
vt 0.875000 0.500000
vt 0.625000 0.250000
vt 0.375000 0.750000
vt 0.625000 0.750000
vt 0.375000 0.500000
vt 0.625000 0.500000
vt 0.375000 0.085390
vt 0.125000 0.664610
vt 0.875000 0.664610
vt 0.625000 0.085390
vt 0.375000 0.664610
vt 0.625000 0.664610
vt 0.875000 0.585389
vt 0.625000 0.164611
vt 0.375000 0.585389
vt 0.375000 0.164611
vt 0.125000 0.585389
vt 0.625000 0.585389
vt 0.438545 0.000000
vt 0.438545 1.000000
vt 0.438545 0.250000
vt 0.438545 0.500000
vt 0.438545 0.750000
vt 0.438545 0.664610
vt 0.438545 0.085390
vt 0.438545 0.585389
vt 0.438545 0.164611
vt 0.531772 0.000000
vt 0.531772 1.000000
vt 0.531772 0.250000
vt 0.531772 0.500000
vt 0.531772 0.750000
vt 0.531772 0.664610
vt 0.531772 0.085390
vt 0.531772 0.585389
vt 0.531772 0.164611
vt 0.375000 0.339334
vt 0.214334 0.500000
vt 0.785666 0.500000
vt 0.625000 0.339334
vt 0.375000 0.910666
vt 0.214334 0.750000
vt 0.785666 0.750000
vt 0.625000 0.910666
vt 0.785666 0.664610
vt 0.214334 0.664610
vt 0.214334 0.585389
vt 0.785666 0.585389
vt 0.438545 0.910666
vt 0.438545 0.339334
vt 0.531772 0.910666
vt 0.531772 0.339334
vt 0.705333 0.500000
vt 0.625000 0.419667
vt 0.294667 0.750000
vt 0.375000 0.830333
vt 0.705333 0.664610
vt 0.705333 0.585389
vt 0.438545 0.419667
vt 0.531772 0.419667
vt 0.375000 0.419667
vt 0.294667 0.500000
vt 0.625000 0.830333
vt 0.705333 0.750000
vt 0.294667 0.664610
vt 0.294667 0.585389
vt 0.438545 0.830333
vt 0.531772 0.830333
vt 0.375000 0.000000
vt 0.375000 1.000000
vt 0.125000 0.750000
vt 0.625000 1.000000
vt 0.875000 0.750000
vt 0.625000 0.000000
vt 0.375000 0.250000
vt 0.125000 0.500000
vt 0.875000 0.500000
vt 0.625000 0.250000
vt 0.375000 0.750000
vt 0.625000 0.750000
vt 0.375000 0.500000
vt 0.625000 0.500000
vt 0.375000 0.085390
vt 0.125000 0.664610
vt 0.875000 0.664610
vt 0.625000 0.085390
vt 0.375000 0.664610
vt 0.625000 0.664610
vt 0.875000 0.585389
vt 0.625000 0.164611
vt 0.375000 0.585389
vt 0.375000 0.164611
vt 0.125000 0.585389
vt 0.625000 0.585389
vt 0.438545 0.000000
vt 0.438545 1.000000
vt 0.438545 0.250000
vt 0.438545 0.500000
vt 0.438545 0.750000
vt 0.438545 0.664610
vt 0.438545 0.085390
vt 0.438545 0.585389
vt 0.438545 0.164611
vt 0.531772 0.000000
vt 0.531772 1.000000
vt 0.531772 0.250000
vt 0.531772 0.500000
vt 0.531772 0.750000
vt 0.531772 0.664610
vt 0.531772 0.085390
vt 0.531772 0.585389
vt 0.531772 0.164611
vt 0.375000 0.339334
vt 0.214334 0.500000
vt 0.785666 0.500000
vt 0.625000 0.339334
vt 0.375000 0.910666
vt 0.214334 0.750000
vt 0.785666 0.750000
vt 0.625000 0.910666
vt 0.785666 0.664610
vt 0.214334 0.664610
vt 0.214334 0.585389
vt 0.785666 0.585389
vt 0.438545 0.910666
vt 0.438545 0.339334
vt 0.531772 0.910666
vt 0.531772 0.339334
vt 0.705333 0.500000
vt 0.625000 0.419667
vt 0.294667 0.750000
vt 0.375000 0.830333
vt 0.705333 0.664610
vt 0.705333 0.585389
vt 0.438545 0.419667
vt 0.531772 0.419667
vt 0.375000 0.419667
vt 0.294667 0.500000
vt 0.625000 0.830333
vt 0.705333 0.750000
vt 0.294667 0.664610
vt 0.294667 0.585389
vt 0.438545 0.830333
vt 0.531772 0.830333
s 0
f 46/66/12 27/44/12 18/32/12 40/60/12
f 64/90/13 59/84/13 22/36/13 41/61/13
f 43/63/14 26/42/14 20/34/14 42/62/14
f 57/81/15 50/74/15 16/26/15 39/59/15
f 67/95/16 25/41/16 19/33/16 60/85/16
f 51/75/17 24/39/17 16/27/17 50/73/17
f 54/78/17 27/43/17 24/39/17 51/75/17
f 68/96/16 28/45/16 25/41/16 67/95/16
f 45/65/14 30/48/14 26/42/14 43/63/14
f 39/58/12 16/28/12 24/40/12 44/64/12
f 41/61/14 22/36/14 30/48/14 45/65/14
f 65/92/16 21/35/16 28/45/16 68/96/16
f 48/69/17 18/31/17 27/43/17 54/78/17
f 44/64/12 24/40/12 27/44/12 46/66/12
f 23/37/12 36/55/12 38/57/12 29/46/12
f 21/35/14 33/52/14 37/56/14 28/45/14
f 15/23/12 31/49/12 36/55/12 23/37/12
f 28/45/14 37/56/14 35/54/14 25/41/14
f 49/71/15 55/79/15 31/50/15 15/24/15
f 25/41/14 35/54/14 34/53/14 19/33/14
f 65/91/13 63/89/13 33/52/13 21/35/13
f 29/46/12 38/57/12 32/51/12 17/29/12
f 33/52/14 41/61/14 45/65/14 37/56/14
f 31/49/12 39/58/12 44/64/12 36/55/12
f 55/79/15 57/81/15 39/59/15 31/50/15
f 35/54/14 43/63/14 42/62/14 34/53/14
f 63/89/13 64/90/13 41/61/13 33/52/13
f 38/57/12 46/66/12 40/60/12 32/51/12
f 32/51/13 40/60/13 58/82/13 56/80/13
f 17/29/13 32/51/13 56/80/13 47/67/13
f 59/83/17 48/69/17 54/78/17 62/88/17
f 17/30/16 47/68/16 53/77/16 29/47/16
f 29/47/16 53/77/16 52/76/16 23/38/16
f 62/88/17 54/78/17 51/75/17 61/87/17
f 61/87/17 51/75/17 50/73/17 66/94/17
f 23/38/16 52/76/16 49/72/16 15/25/16
f 70/98/15 66/93/15 50/74/15 57/81/15
f 40/60/13 18/32/13 48/70/13 58/82/13
f 42/62/15 20/34/15 66/93/15 70/98/15
f 26/42/17 61/87/17 66/94/17 20/34/17
f 30/48/17 62/88/17 61/87/17 26/42/17
f 22/36/17 59/83/17 62/88/17 30/48/17
f 19/33/15 34/53/15 69/97/15 60/86/15
f 34/53/15 42/62/15 70/98/15 69/97/15
f 56/80/13 58/82/13 64/90/13 63/89/13
f 47/67/13 56/80/13 63/89/13 65/91/13
f 47/68/16 65/92/16 68/96/16 53/77/16
f 53/77/16 68/96/16 67/95/16 52/76/16
f 52/76/16 67/95/16 60/85/16 49/72/16
f 58/82/13 48/70/13 59/84/13 64/90/13
f 102/142/18 96/136/18 74/108/18 83/120/18
f 120/166/19 97/137/19 78/112/19 115/160/19
f 99/139/20 98/138/20 76/110/20 82/118/20
f 113/157/21 95/135/21 72/102/21 106/150/21
f 123/171/22 116/161/22 75/109/22 81/117/22
f 107/151/23 106/149/23 72/103/23 80/115/23
f 110/154/24 107/151/24 80/115/24 83/119/24
f 124/172/25 123/171/25 81/117/25 84/121/25
f 101/141/26 99/139/26 82/118/26 86/124/26
f 95/134/27 100/140/27 80/116/27 72/104/27
f 97/137/28 101/141/28 86/124/28 78/112/28
f 121/168/29 124/172/29 84/121/29 77/111/29
f 104/145/30 110/154/30 83/119/30 74/107/30
f 100/140/31 102/142/31 83/120/31 80/116/31
f 79/113/32 85/122/32 94/133/32 92/131/32
f 77/111/33 84/121/33 93/132/33 89/128/33
f 71/99/34 79/113/34 92/131/34 87/125/34
f 84/121/35 81/117/35 91/130/35 93/132/35
f 105/147/36 71/100/36 87/126/36 111/155/36
f 81/117/37 75/109/37 90/129/37 91/130/37
f 121/167/38 77/111/38 89/128/38 119/165/38
f 85/122/39 73/105/39 88/127/39 94/133/39
f 89/128/40 93/132/40 101/141/40 97/137/40
f 87/125/41 92/131/41 100/140/41 95/134/41
f 111/155/42 87/126/42 95/135/42 113/157/42
f 91/130/43 90/129/43 98/138/43 99/139/43
f 119/165/44 89/128/44 97/137/44 120/166/44
f 94/133/45 88/127/45 96/136/45 102/142/45
f 88/127/46 112/156/46 114/158/46 96/136/46
f 73/105/47 103/143/47 112/156/47 88/127/47
f 115/159/48 118/164/48 110/154/48 104/145/48
f 73/106/49 85/123/49 109/153/49 103/144/49
f 85/123/50 79/114/50 108/152/50 109/153/50
f 118/164/16 117/163/16 107/151/16 110/154/16
f 117/163/51 122/170/51 106/149/51 107/151/51
f 79/114/52 71/101/52 105/148/52 108/152/52
f 126/174/53 113/157/53 106/150/53 122/169/53
f 96/136/54 114/158/54 104/146/54 74/108/54
f 98/138/55 126/174/55 122/169/55 76/110/55
f 82/118/56 76/110/56 122/170/56 117/163/56
f 86/124/57 82/118/57 117/163/57 118/164/57
f 78/112/58 86/124/58 118/164/58 115/159/58
f 75/109/59 116/162/59 125/173/59 90/129/59
f 90/129/60 125/173/60 126/174/60 98/138/60
f 112/156/15 119/165/15 120/166/15 114/158/15
f 103/143/61 121/167/61 119/165/61 112/156/61
f 103/144/62 109/153/62 124/172/62 121/168/62
f 109/153/17 108/152/17 123/171/17 124/172/17
f 108/152/63 105/148/63 116/161/63 123/171/63
f 114/158/64 120/166/64 115/160/64 104/146/64
f 43/63/13 35/54/13 91/130/13 99/139/13
f 36/55/13 44/64/13 100/140/13 92/131/13
f 37/56/15 45/65/15 101/141/15 93/132/15
f 46/66/15 38/57/15 94/133/15 102/142/15
f 38/57/17 36/55/17 92/131/17 94/133/17
f 35/54/17 37/56/17 93/132/17 91/130/17
f 44/64/16 46/66/16 102/142/16 100/140/16
f 45/65/16 43/63/16 99/139/16 101/141/16
f 70/98/16 57/81/16 113/157/16 126/174/16
f 57/81/14 55/79/14 111/155/14 113/157/14
f 55/79/14 49/71/14 105/147/14 111/155/14
f 49/72/65 60/85/65 116/161/65 105/148/65
f 60/86/12 69/97/12 125/173/12 116/162/12
f 69/97/12 70/98/12 126/174/12 125/173/12
